<svg xmlns="http://www.w3.org/2000/svg" viewBox="0 0 64 64"><path fill="whitesmoke" d="M2.252,44.093a1,1,0,0,1-.641-1.768L15.019,31.146a1,1,0,0,1,1.1-.123l4.753,2.428,4.245-4.091a1,1,0,0,1,.694-.28H28.5l4.984-8.671a1,1,0,0,1,.772-.5,1.017,1.017,0,0,1,.852.34L44.5,31.1l3.95-3.179a1,1,0,0,1,1.378.118L62.5,42.432A1,1,0,1,1,61,43.754L48.962,30.083l-3.956,3.184a1,1,0,0,1-1.383-.124l-9.11-10.517L29.94,30.578a1,1,0,0,1-.867.5H26.209l-4.467,4.306a1,1,0,0,1-1.149.171l-4.8-2.453L2.892,43.861A1,1,0,0,1,2.252,44.093Z"/><path fill="whitesmoke" d="M35.266 42.831a1 1 0 0 1-.463-1.887l9.072-4.73L48.2 28.228a1 1 0 1 1 1.758.953l-4.472 8.255a1 1 0 0 1-.417.41l-9.343 4.872A1 1 0 0 1 35.266 42.831zM17.837 43.347a1 1 0 0 1-1-1.1l.487-4.921-2.558-4.954a1 1 0 1 1 1.777-.918l2.694 5.217a1 1 0 0 1 .107.557l-.217 2.187 6.332-7.025a1 1 0 0 1 1.627.2l2.254 4.265 2.315-5.146 1.7-10.959a1 1 0 0 1 1.977.307l-1.72 11.092a.962.962 0 0 1-.076.257l-3.21 7.137a1 1 0 0 1-.88.589.961.961 0 0 1-.916-.532l-2.541-4.811L18.58 43.017A1 1 0 0 1 17.837 43.347z"/><path fill="whitesmoke" d="M38.3,38.3a1,1,0,0,1-.622-1.784L43.758,31.7A1,1,0,1,1,45,33.271l-6.076,4.816A1,1,0,0,1,38.3,38.3Z"/></svg>